<svg xmlns="http://www.w3.org/2000/svg" width="69" height="69" viewBox="0 0 69 69" fill="none">
<g clip-path="url(#clip0_547_3417)">
<path d="M27.7902 25.4142C27.6605 23.7333 26.3869 8.83511 21.1862 3.63313C18.8393 1.29165 15.726 0 12.4063 0C9.09242 0 5.97316 1.29165 3.63225 3.63313C1.29134 5.97461 0 9.09462 0 12.4093C0 15.7239 1.29134 18.8439 3.63225 21.1854C8.83297 26.3874 23.7276 27.6672 25.4081 27.7911L26.3869 27.8678C27.2242 27.9326 27.9259 27.2308 27.861 26.3933L27.7902 25.4142ZM17.5657 22.2057C12.2117 21.1382 8.37894 19.6637 6.76919 18.0477C5.26558 16.5437 4.43418 14.5384 4.43418 12.4093C4.43418 10.2801 5.26558 8.27481 6.76919 6.77084C8.2728 5.26686 10.2776 4.43525 12.4063 4.43525C14.5349 4.43525 16.5397 5.26686 18.0433 6.77084C19.6531 8.38097 21.1331 12.2205 22.2004 17.57C22.6131 19.646 22.8961 21.6101 23.0848 23.0904C21.6048 22.9076 19.6472 22.6245 17.5657 22.2057Z" fill="#FF5231"/>
<path d="M12.4063 9.30713C11.5925 9.30713 10.7847 9.63741 10.2128 10.2154C9.6349 10.7934 9.30469 11.5955 9.30469 12.4094C9.30469 13.2234 9.6349 14.0255 10.2128 14.6035C10.7965 15.1874 11.5925 15.5118 12.4063 15.5118C13.22 15.5118 14.0219 15.1815 14.5998 14.6035C15.1835 14.0255 15.5078 13.2234 15.5078 12.4094C15.5078 11.5955 15.1776 10.7934 14.5998 10.2154C14.0278 9.63741 13.2259 9.30713 12.4063 9.30713Z" fill="#FF5231"/>
<path d="M34.7069 0.430664C32.3777 0.430664 30.0545 0.666582 27.7902 1.12662L28.6806 5.4734C30.6501 5.07234 32.6726 4.86592 34.7069 4.86592C51.164 4.86592 64.555 18.2601 64.555 34.7213C64.555 37.9711 64.0361 41.1677 63.0101 44.2229L67.2143 45.6325C68.3936 42.1232 68.9892 38.4547 68.9892 34.7213C68.9892 15.8125 53.6111 0.430664 34.7069 0.430664Z" fill="#FF5231"/>
<path d="M38.4747 48.1215C38.0738 48.3633 37.6728 48.6051 37.2718 48.8469C30.7916 52.7337 26.0449 53.2468 23.1674 50.3686C22.218 49.419 21.5753 47.6909 21.4869 45.8567C21.3984 44.0283 21.8584 42.4241 22.7251 41.5571L22.7192 41.5512C22.7546 41.5158 22.79 41.4922 22.8254 41.4568C25.6026 38.3014 30.6088 37.7942 35.9097 37.2575C41.3699 36.709 47.0188 36.1369 50.8161 32.4507C50.822 32.4448 50.8279 32.4389 50.8279 32.4389C50.8338 32.433 50.8338 32.433 50.8397 32.4271L50.8456 32.4212C53.9531 29.4604 54.6429 26.4348 54.6724 24.4118C54.7078 21.799 53.6405 19.2157 51.7478 17.3224C51.7419 17.3165 51.736 17.3107 51.7301 17.2989C44.6896 10.4278 37.1362 16.9686 34.6538 19.1213C31.4638 21.8816 28.8044 23.9517 26.0213 23.4032C24.8184 23.1673 23.6509 23.9458 23.415 25.149C23.1792 26.3522 23.9575 27.52 25.1604 27.7559C25.7618 27.8739 26.3515 27.9328 26.9294 27.9328C31.2633 27.9328 34.8543 24.8246 37.5608 22.4772C42.561 18.1482 45.6626 17.582 48.6285 20.466C49.6899 21.5336 50.2677 22.9078 50.2442 24.3469C50.2206 26.0278 49.3656 27.7146 47.7735 29.2245C47.7676 29.2304 47.7558 29.2363 47.7499 29.2481C45.0611 31.8727 40.4029 32.3386 35.4675 32.8399C29.5946 33.4297 23.5271 34.049 19.6 38.4194C19.5941 38.4253 19.5882 38.4371 19.5764 38.443C19.5528 38.4725 19.5233 38.4961 19.4998 38.5196C19.488 38.5314 19.4821 38.5491 19.4703 38.5609C17.7957 40.3244 16.9171 43.0434 17.0645 46.0631C17.2119 49.0416 18.291 51.7487 20.0422 53.4945C22.3065 55.7593 24.9717 56.6263 27.7254 56.6204C31.8117 56.6204 36.0925 54.7213 39.5597 52.6393C39.9665 52.3975 40.3675 52.1498 40.7744 51.908C47.9917 47.5435 52.6028 45.1253 55.8222 48.3397C57.7799 50.2978 57.7799 53.8602 55.8222 55.8183C50.1852 61.4567 42.6907 64.565 34.7186 64.565C18.2615 64.565 4.87052 51.1707 4.87052 34.7096C4.87052 32.7102 5.071 30.7167 5.46017 28.7762L1.11444 27.8975C0.666305 30.1269 0.436343 32.4153 0.436343 34.7096C0.436343 53.6184 15.8144 69.0002 34.7186 69.0002C43.8759 69.0002 52.4848 65.4319 58.9592 58.956C60.7105 57.2043 61.7129 54.6977 61.7129 52.079C61.7129 49.4603 60.7105 46.9537 58.9592 45.202C53.045 39.3041 45.3029 43.987 38.4747 48.1215Z" fill="#FF5231"/>
</g>
<defs>
<clipPath id="clip0_547_3417">
<rect width="68.9892" height="69" fill="white"/>
</clipPath>
</defs>
</svg>